<?xml version="1.0"?>
<svg width="900" height="700" xmlns="http://www.w3.org/2000/svg" xmlns:svg="http://www.w3.org/2000/svg">
 <!-- Background gradient representing blood vessel interior -->
 <defs>
  <linearGradient id="bloodVesselGradient" x1="0%" x2="0%" y1="0%" y2="100%">
   <stop offset="0%" stop-color="#6b0000"/>
   <stop offset="100%" stop-color="#cc0000"/>
  </linearGradient>
  <radialGradient cx="50%" cy="50%" fx="50%" fy="50%" id="rbcGradient" r="50%">
   <stop offset="0%" stop-color="#ff9d9d"/>
   <stop offset="100%" stop-color="#b30000"/>
  </radialGradient>
  <radialGradient cx="50%" cy="50%" fx="50%" fy="50%" id="nanobotGradientInactive" r="50%">
   <stop offset="0%" stop-color="#c0e8ff"/>
   <stop offset="100%" stop-color="#0066cc"/>
  </radialGradient>
  <radialGradient cx="50%" cy="50%" fx="50%" fy="50%" id="nanobotGradientActive" r="50%">
   <stop offset="0%" stop-color="#c0ffeb"/>
   <stop offset="100%" stop-color="#00cc99"/>
  </radialGradient>
  <filter height="160%" id="glow" width="160%" x="-30%" y="-30%">
   <feGaussianBlur stdDeviation="3"/>
  </filter>
 </defs>
 <!-- Blood vessel interior -->
 <!-- Vessel walls -->
 <!-- Vessel wall labels -->
 <!-- Direction of blood flow indicator -->
 <!-- Red blood cells -->
 <!-- Inactive Nanobot 1 -->
 <!-- Active Nanobot near vessel wall (detecting biomarker) -->
 <!-- Active Nanobot 2 scanning vessel wall -->
 <!-- Biomarkers (proteins) -->
 <!-- Connection arrows -->
 <!-- Zoom-in panel of molecular detection -->
 <!-- Legend -->
 <!-- Title -->
 <g class="layer">
  <title>Layer 1</title>
  <rect fill="url(#bloodVesselGradient)" height="506.999994" id="svg_1" width="643.999981" x="98.00001" y="162.999992"/>
  <path d="m96.999971,212c71.444446,-10 321.500006,20 643.000013,-10" fill="none" id="svg_2" stroke="#aa0000" stroke-width="15"/>
  <path d="m98.000007,651c71.22222,10 320.499992,-20 640.999984,10" fill="none" id="svg_3" stroke="#ef2f2f" stroke-width="15"/>
  <text fill="#ffffff" font-family="Arial" font-size="16" font-weight="bold" id="svg_4" transform="matrix(1 0 0 1 0 0) matrix(0.780427 0 0 0.616566 54.227 89.5898)" x="85.559522" y="230">Endothelial Wall</text>
  <text fill="#ffffff" font-family="Arial" font-size="16" font-weight="bold" id="svg_5" transform="matrix(1 0 0 1 0 0) matrix(0.747829 0 0 0.616283 66.8083 241.991)" x="142" y="627">Endothelial Wall</text>
  <path d="m450,350l200,0" id="svg_6" stroke="#ffffff" stroke-dasharray="10,5" stroke-width="5"/>
  <polygon fill="#ffffff" id="svg_7" points="640,330 670,350 640,370"/>
  <text fill="#ffffff" font-family="Arial" font-size="16" font-weight="bold" id="svg_8" transform="matrix(1 0 0 1 0 0) matrix(0.668599 0 0 0.553668 235.27 171.061)" x="550" y="380">Blood Flow Direction</text>
  <g id="redBloodCells">
   <!-- RBC 1 -->
   <ellipse cx="286" cy="326" fill="url(#rbcGradient)" id="svg_9" rx="35" ry="15" transform="matrix(1 0 0 1 0 0) rotate(30 286 326)"/>
   <text fill="#ffffff" font-family="Arial" font-size="14" id="svg_10" text-anchor="middle" transform="matrix(0.785762 0 0 0.615102 65.8904 115.021)" x="260.880071" y="296">Red Blood Cell</text>
   <!-- RBC 2 -->
   <ellipse cx="407" cy="317" fill="url(#rbcGradient)" id="svg_11" rx="35" ry="15" transform="matrix(1 0 0 1 0 0) rotate(-15 407 317)"/>
   <!-- RBC 3 -->
   <ellipse cx="501" cy="293" fill="url(#rbcGradient)" id="svg_12" rx="35" ry="15" transform="rotate(20 501 293)"/>
   <!-- RBC 4 -->
   <ellipse cx="699" cy="400" fill="url(#rbcGradient)" id="svg_13" rx="35" ry="15" transform="rotate(-25 699 400)"/>
   <!-- RBC 5 -->
   <ellipse cx="299" cy="450" fill="url(#rbcGradient)" id="svg_14" rx="35" ry="15" transform="rotate(10 299 450)"/>
   <!-- RBC 6 -->
   <ellipse cx="599" cy="500" fill="url(#rbcGradient)" id="svg_15" rx="35" ry="15" transform="rotate(-5 599 500)"/>
  </g>
  <g id="inactiveNanobot1" transform="matrix(1 0 0 1 0 0)">
   <ellipse cx="204.361742" cy="277.997843" fill="url(#nanobotGradientInactive)" id="svg_16" rx="15.956527" ry="10.002157" stroke="#003366" stroke-width="2"/>
   <ellipse cx="195.426087" cy="277.331033" fill="#0099ff" id="svg_17" rx="5.106089" ry="10.002157" stroke="#003366"/>
   <ellipse cx="214.57392" cy="277.331033" fill="#0099ff" id="svg_18" rx="5.106089" ry="10.002157" stroke="#003366"/>
   <ellipse cx="205.000003" cy="277.331033" fill="#66ccff" filter="url(#glow)" id="svg_19" rx="2.553044" ry="2.667242"/>
   <text fill="#ffffff" font-family="Arial" font-size="14" id="svg_20" text-anchor="middle" transform="matrix(0.638261 0 0 0.66681 86.2834 95.9586)" x="186" y="247">Inactive Nanobot</text>
  </g>
  <g id="activeNanobot1">
   <ellipse cx="226" cy="523" fill="url(#nanobotGradientActive)" id="svg_21" rx="30" ry="18" stroke="#006644" stroke-width="2"/>
   <ellipse cx="208" cy="523" fill="#00cc99" id="svg_22" rx="10" ry="18" stroke="#006644"/>
   <ellipse cx="244" cy="523" fill="#00cc99" id="svg_23" rx="10" ry="18" stroke="#006644"/>
   <ellipse cx="226" cy="523" fill="#00ffcc" filter="url(#glow)" id="svg_24" rx="5" ry="5"/>
   <text fill="#ffffff" font-family="Arial" font-size="14" id="svg_25" text-anchor="middle" x="368" y="498">Activated Nanobot</text>
   <text fill="#ffffff" font-family="Arial" font-size="12" id="svg_26" text-anchor="middle" x="370" y="517">(Detecting Biomarkers)</text>
   <!-- Sensor beams -->
   <path d="m242,528c25,-15 45,15 60,-5" fill="black" id="svg_27" opacity="0.8" stroke="#00ffcc" stroke-dasharray="2,2" stroke-width="2" transform="matrix(1 0 0 1 0 0)"/>
   <path d="m241,518c20,-25 35,-5 60,-15" fill="black" id="svg_28" opacity="0.8" stroke="#00ffcc" stroke-dasharray="2,2" stroke-width="2"/>
   <!-- Data transmission waves -->
   <circle cx="226" cy="523" fill="none" id="svg_29" opacity="0.5" r="40" stroke="#00ffcc"/>
   <circle cx="226" cy="523" fill="none" id="svg_30" opacity="0.4" r="50" stroke="#00ffcc"/>
   <circle cx="227.499992" cy="521.999993" fill="none" id="svg_31" opacity="0.3" r="53.5" stroke="#00ffcc"/>
  </g>
  <g id="activeNanobot2" transform="matrix(1 0 0 1 0 0)">
   <ellipse cx="615.5" cy="265.379312" fill="url(#nanobotGradientActive)" id="svg_32" rx="15.25" ry="9.186206" stroke="#006644" stroke-width="2"/>
   <ellipse cx="606.350001" cy="265.379312" fill="#00cc99" id="svg_33" rx="5.083333" ry="9.186206" stroke="#006644"/>
   <ellipse cx="624.65" cy="265.379312" fill="#00cc99" id="svg_34" rx="5.083333" ry="9.186206" stroke="#006644"/>
   <ellipse cx="615.5" cy="265.379312" fill="#00ffcc" filter="url(#glow)" id="svg_35" rx="2.541667" ry="2.551724"/>
   <!-- Vessel wall scanning beam -->
   <path d="m605.333334,260.275864c-10.166667,-15.310344 -17.791666,-30.620688 -20.333333,-38.27586" id="svg_36" opacity="0.8" stroke="#00ffcc" stroke-dasharray="2,2" stroke-width="2"/>
   <!-- Data transmission waves -->
   <circle cx="615.5" cy="265.379312" fill="none" id="svg_37" opacity="0.5" r="20.333332" stroke="#00ffcc"/>
   <circle cx="615.5" cy="265.379312" fill="none" id="svg_38" opacity="0.4" r="25.416666" stroke="#00ffcc"/>
   <circle cx="615.5" cy="265.379312" fill="none" id="svg_39" opacity="0.3" r="30.5" stroke="#00ffcc"/>
  </g>
  <g id="biomarkers">
   <!-- Protein clusters near vessel wall -->
   <g id="svg_40" transform="translate(250, 570)">
    <circle cx="0" cy="0" fill="#ffcc00" id="svg_41" opacity="0.9" r="8" stroke="#ff9900"/>
    <circle cx="12" cy="-5" fill="#ffcc00" id="svg_42" opacity="0.9" r="6" stroke="#ff9900"/>
    <circle cx="7" cy="8" fill="#ffcc00" id="svg_43" opacity="0.9" r="7" stroke="#ff9900"/>
    <circle cx="-8" cy="-7" fill="#ffcc00" id="svg_44" opacity="0.9" r="5" stroke="#ff9900"/>
    <text fill="#ffffff" font-family="Arial" font-size="14" id="svg_45" x="25" y="0">Protein</text>
    <text fill="#ffffff" font-family="Arial" font-size="14" id="svg_46" x="25" y="15">Biomarkers</text>
   </g>
   <!-- Individual biomarkers scattered in bloodstream -->
   <circle cx="350" cy="303" fill="#ffcc00" id="svg_47" opacity="0.8" r="6" stroke="#ff9900"/>
   <circle cx="500" cy="350" fill="#ffcc00" id="svg_48" opacity="0.8" r="5" stroke="#ff9900"/>
   <circle cx="630" cy="450" fill="#ffcc00" id="svg_49" opacity="0.8" r="7" stroke="#ff9900"/>
   <circle cx="300" cy="380" fill="#ffcc00" id="svg_50" opacity="0.8" r="6" stroke="#ff9900"/>
  </g>
  <path d="m250,520c100,-70 150,-120 200,-170" fill="none" id="svg_51" stroke="#ffffff" stroke-dasharray="5,5" stroke-width="2" transform="matrix(1 0 0 1 0 0)"/>
  <text fill="#ffffff" font-family="Arial" font-size="14" id="svg_52" transform="matrix(1 0 0 1 0 0) matrix(0.689471 0 0 0.622236 160.212 152.249)" x="360.839526" y="398.392892">Data Transmission</text>
  <g id="zoomPanel" transform="matrix(1 0 0 1 0 0)">
   <!-- Panel background -->
   <rect fill="#000033" height="96.999999" id="svg_53" opacity="0.8" rx="15" ry="15" stroke="#ffffff" stroke-width="2" width="131.135348" x="157.999997" y="367.000001"/>
   <text fill="#ffffff" font-family="Arial" font-size="16" font-weight="bold" id="svg_54" text-anchor="middle" transform="matrix(0.468341 0 0 0.440909 158.583 262.773)" x="138.755236" y="266.391752">MOLECULAR DETECTION ZOOM</text>
   <!-- Nanobot sensor interface -->
   <rect fill="#002244" height="66.136363" id="svg_55" opacity="0.7" rx="10" ry="10" width="120.831862" x="167.366807" y="389.045455"/>
   <!-- Nanobot receptor -->
   <path d="m204.83405,411.090909l14.050216,0l0,13.227273l14.050216,0" fill="none" id="svg_56" stroke="#00ccff" stroke-width="4"/>
   <text fill="#ffffff" font-family="Arial" font-size="12" id="svg_57" transform="matrix(0.468341 0 0 0.440909 158.583 262.773)" x="78.755236" y="326.391752">Nanobot</text>
   <text fill="#ffffff" font-family="Arial" font-size="12" id="svg_58" transform="matrix(0.468341 0 0 0.440909 158.583 262.773)" x="78.755236" y="341.391752">Receptor</text>
   <!-- Protein biomarker -->
   <circle cx="242.301292" cy="424.318182" fill="#ffcc00" id="svg_59" opacity="0.9" r="6.215291"/>
   <text fill="#ffffff" font-family="Arial" font-size="12" id="svg_60" text-anchor="middle" transform="matrix(0.468341 0 0 0.440909 158.583 262.773)" x="178.755236" y="396.391752">Biomarker</text>
   <!-- Binding site -->
   <circle cx="232.934482" cy="424.318182" fill="#ff3300" id="svg_61" r="2.071764"/>
   <text fill="#ffffff" font-family="Arial" font-size="12" id="svg_62" transform="matrix(0.416014 0 0 0.440909 138.552 257.214)" x="260" y="354">Ligand-Receptor</text>
   <text fill="#ffffff" font-family="Arial" font-size="12" id="svg_63" transform="matrix(0.468341 0 0 0.440909 158.583 262.773)" x="215.139783" y="358.391752">Binding</text>
   <!-- Binding arrow -->
   <path d="m232.934482,417.704546l0,13.227273" id="svg_64" stroke="#ffffff" stroke-dasharray="3,2"/>
   <polygon fill="#ffffff" id="svg_65" points="230.59278869628906,428.7272644042969 232.93447875976562,433.1363525390625 235.27618408203125,428.7272644042969 "/>
  </g>
  <g id="legend" transform="matrix(1 0 0 1 0 0)">
   <rect fill="#000000" height="87.428034" id="svg_66" opacity="0.7" rx="10" ry="10" stroke="#ffffff" width="130.999993" x="374.000004" y="538"/>
   <text fill="#ffffff" font-family="Arial" font-size="16" font-weight="bold" id="svg_67" text-anchor="middle" transform="matrix(0.752874 0 0 0.666433 92.4253 180.962)" x="485" y="557.180069">LEGEND</text>
   <!-- Inactive nanobot -->
   <ellipse cx="392.068965" cy="564.987902" fill="url(#nanobotGradientInactive)" id="svg_68" rx="11.293103" ry="5.331465" stroke="#003366"/>
   <text fill="#ffffff" font-family="Arial" font-size="14" id="svg_69" transform="matrix(0.752874 0 0 0.666433 92.4253 180.962)" x="427" y="581.240091">Inactive Nanobot</text>
   <!-- Active nanobot -->
   <ellipse cx="391.316091" cy="583.23217" fill="url(#nanobotGradientActive)" id="svg_70" rx="11.293103" ry="5.331465" stroke="#006644"/>
   <text fill="#ffffff" font-family="Arial" font-size="14" id="svg_71" transform="matrix(0.752874 0 0 0.666433 92.4253 180.962)" x="425" y="607.428087">Activated Nanobot</text>
   <!-- Protein biomarker -->
   <circle cx="392.821838" cy="598.30956" fill="#ffcc00" id="svg_72" r="5.069875" stroke="#ff9900"/>
   <text fill="#ffffff" font-family="Arial" font-size="14" id="svg_73" transform="matrix(0.752874 0 0 0.79172 92.4253 112.055)" x="425" y="620">Protein Biomarker</text>
   <!-- Red blood cell -->
   <ellipse cx="394.327586" cy="616.157969" fill="url(#rbcGradient)" id="svg_74" rx="11.293103" ry="4.394459"/>
   <text fill="#ffffff" font-family="Arial" font-size="14" id="svg_75" transform="matrix(0.752874 0 0 0.79172 92.4253 112.055)" x="425" y="639">Red Blood Cell</text>
  </g>
  <text fill="#f7efef" font-family="Arial" font-size="24" font-weight="bold" id="svg_76" stroke="#e0cece" text-anchor="middle" transform="matrix(0.626023 0 0 0.609067 272.001 76.9208)" x="230.022321" y="191">3D SIMULATION: NANOBOTS DETECTING CARDIOVASCULAR BIOMARKERS</text>
 </g>
</svg>